<svg xmlns="http://www.w3.org/2000/svg" width="24" height="24" viewBox="0 0 24 24">
    <path fill="#000" fill-rule="nonzero" d="M12.074 7.31h9.852l-.898 10.174-4.034 1.131-4.023-1.13-.897-10.174zm-10.01 0h9.873l-.9 10.244-4.043 1.068-4.032-1.089-.899-10.222zm17.714-1.306v.407H18V5.85h.932L18 4.991V4.5h1.778v.562h-.795l.795.942zm-2.111 0v.407H16V5.85h.86L16 4.991V4.5h1.667v.562h-.757l.757.942zm-2-.155v.562H14.11V4.5h1.556v.562h-.89v.787h.89zM2.995 4.57h.625v.625h.571V4.57h.625v1.892h-.625v-.633H3.62v.633h-.625V4.57zm2.643.628h-.55V4.57h1.725v.628h-.55v1.264h-.625V5.198zm1.448-.628h.652l.4.665.4-.665h.652v1.892h-.622v-.938l-.43.673h-.01l-.43-.673v.938h-.612V4.57zm2.415 0h.625v1.267h.879v.625H9.5V4.57zM19.503 15.45l.261-2.462.299-3.39.03-.375h-6.178l.03.38.056.678.024.291h4.72l-.113 1.237h-3.098l.029.337.056.635.025.265h2.878l-.145 1.636-1.377.395-1.371-.37-.088-.986h-1.238l.17 1.95 2.527.697 2.504-.707v-.211zm-9.435-5.724l.03-.278H3.905l.03.356.303 3.467h4.284l-.144 1.543L7 15.111v-.001.026l-1.377-.353-.088-.951h-1.24l.171 1.918 2.531.665.003-.002 2.532-.689.022-.19.29-3.25.03-.25H5.37l-.113-1.35h4.73l.024-.303.057-.656z"/>
</svg>
