<?xml version="1.0" standalone="no"?>
<!DOCTYPE svg PUBLIC "-//W3C//DTD SVG 20010904//EN"
 "http://www.w3.org/TR/2001/REC-SVG-20010904/DTD/svg10.dtd">
<svg version="1.0" xmlns="http://www.w3.org/2000/svg"
 width="500.000000pt" height="500.000000pt" viewBox="0 0 500.000000 500.000000"
 preserveAspectRatio="xMidYMid meet">
<metadata>
Created by potrace 1.14, written by Peter Selinger 2001-2017
</metadata>
<g transform="translate(0.000000,500.000000) scale(0.100000,-0.100000)"
fill="#000000" stroke="none">
<path d="M143 3635 c-55 -28 -99 -77 -119 -134 -11 -28 -13 -240 -13 -1011 0
-964 0 -975 21 -1018 26 -54 97 -117 146 -129 22 -6 666 -9 1608 -9 l1571 1
49 30 c130 81 151 249 45 355 -60 60 -99 70 -260 70 -170 0 -201 14 -201 89 0
24 29 68 48 73 4 0 223 2 487 4 537 2 523 1 593 74 111 113 67 310 -83 371
-21 8 -133 12 -389 13 l-358 2 -24 27 c-38 45 -31 98 17 122 22 12 71 15 221
15 181 0 196 2 243 24 87 40 138 121 134 211 -4 88 -51 158 -139 206 -20 11
-106 14 -402 15 -208 1 -393 5 -412 8 -74 14 -90 111 -23 148 17 9 204 12 807
13 749 1 787 2 824 20 154 74 179 276 49 384 -21 17 -54 36 -73 41 -22 6 -581
10 -1503 10 l-1468 0 -24 -26 c-39 -42 -10 -113 49 -115 11 0 665 -2 1451 -3
787 -2 1438 -3 1447 -4 55 -6 77 -94 33 -137 l-24 -25 -789 0 -788 0 -52 -26
c-63 -31 -101 -78 -118 -144 -30 -118 32 -236 145 -275 37 -12 111 -15 427
-15 383 0 383 0 409 -22 35 -31 37 -81 4 -113 -24 -24 -28 -24 -239 -27 -234
-4 -250 -7 -305 -66 -92 -96 -93 -235 -2 -326 66 -65 83 -68 467 -67 309 0
339 -2 367 -19 52 -31 49 -109 -5 -136 -17 -8 -157 -12 -495 -11 -450 0 -474
-1 -517 -20 -150 -66 -185 -255 -70 -373 52 -53 89 -63 250 -65 80 -1 155 -5
167 -9 11 -4 28 -22 37 -41 19 -40 9 -76 -29 -101 -23 -15 -142 -16 -1563 -16
-1018 0 -1546 3 -1563 10 -55 22 -54 5 -54 828 l0 759 870 1 c479 0 882 4 897
7 52 13 67 86 26 123 -19 18 -59 19 -902 20 -484 1 -883 2 -886 3 -11 2 -4
216 8 237 27 51 7 49 590 50 l545 1 24 27 c28 33 29 56 2 90 l-20 26 -558 0
-557 0 -51 -25z"/>
<path d="M296 3405 c-8 -6 -18 -23 -21 -38 -5 -20 -1 -32 19 -51 31 -31 45
-32 80 -5 62 49 -14 141 -78 94z"/>
<path d="M533 3405 c-32 -22 -35 -64 -7 -92 28 -28 58 -29 84 -3 27 27 26 75
-2 94 -28 20 -48 20 -75 1z"/>
<path d="M760 3400 c-39 -39 -19 -95 36 -106 26 -5 35 -1 52 21 49 62 -33 140
-88 85z"/>
<path d="M2195 3222 c-30 -6 -65 -42 -65 -68 0 -13 10 -35 23 -50 l24 -27 187
0 c178 0 189 1 209 21 30 30 30 75 1 103 -23 22 -32 23 -192 24 -92 0 -176 -1
-187 -3z"/>
<path d="M4349 3013 c-160 -80 -168 -303 -15 -398 l49 -30 216 -2 c200 -2 219
0 259 19 107 52 159 186 114 299 -16 40 -61 88 -106 112 -38 20 -57 21 -254
23 -209 2 -213 2 -263 -23z m458 -138 c66 -44 37 -144 -42 -145 -19 -1 -91 -1
-160 -1 -69 0 -139 0 -155 1 -66 1 -103 80 -61 131 18 22 28 24 143 29 174 7
247 3 275 -15z"/>
<path d="M1596 2821 c-32 -17 -42 -44 -32 -87 9 -34 41 -47 110 -45 46 1 66 7
83 23 30 28 29 70 -1 99 -29 28 -112 33 -160 10z"/>
<path d="M383 2718 c-120 -119 -145 -152 -138 -187 5 -25 218 -245 259 -267
23 -13 33 -13 57 -3 36 14 48 34 43 73 -2 22 -28 54 -93 120 l-91 91 87 88
c76 78 87 93 87 124 0 25 -7 41 -23 54 -45 37 -66 27 -188 -93z"/>
<path d="M914 2806 c-26 -24 -252 -428 -260 -466 -8 -38 29 -80 70 -80 19 0
40 8 48 18 33 36 258 451 258 474 0 61 -71 94 -116 54z"/>
<path d="M1099 2817 c-27 -21 -40 -54 -30 -79 5 -13 46 -61 92 -106 l82 -82
-85 -88 c-47 -48 -89 -96 -95 -107 -23 -47 29 -112 79 -100 14 4 82 63 152
134 100 102 126 133 126 155 0 27 -20 51 -171 205 -77 80 -114 96 -150 68z"/>
<path d="M1913 2822 c-49 -7 -70 -85 -33 -122 23 -23 -4 -22 373 -22 291 -1
299 0 320 20 30 31 30 75 1 103 -25 23 -26 23 -332 24 -169 0 -317 -1 -329 -3z"/>
<path d="M1636 2489 c-57 -6 -85 -34 -78 -80 9 -58 21 -60 344 -60 161 0 317
0 345 1 44 0 55 4 68 24 41 62 10 115 -67 117 -229 4 -573 3 -612 -2z"/>
<path d="M2513 2492 c-74 -5 -108 -75 -59 -121 24 -23 31 -23 197 -22 95 0
180 3 189 6 10 3 23 19 30 35 16 38 -2 88 -35 96 -25 6 -258 11 -322 6z"/>
<path d="M547 2130 c-42 -4 -63 -11 -73 -25 -20 -26 -17 -69 5 -96 l19 -24
599 -1 c329 0 609 4 622 8 52 18 67 77 31 116 -18 19 -32 22 -103 23 -523 3
-1054 3 -1100 -1z"/>
<path d="M1978 2130 c-52 -4 -71 -10 -82 -25 -31 -41 -15 -97 31 -112 16 -5
157 -9 315 -8 273 0 289 1 307 20 33 33 36 68 9 99 l-23 27 -245 2 c-135 1
-275 0 -312 -3z"/>
<path d="M482 1787 c-28 -30 -29 -78 -1 -103 18 -17 40 -18 232 -19 193 -1
215 0 240 17 35 25 38 77 5 108 -21 19 -34 20 -238 20 -213 0 -217 0 -238 -23z"/>
<path d="M1085 1785 c-32 -31 -32 -70 -1 -99 24 -21 32 -22 162 -21 130 1 138
3 155 24 25 30 24 62 -2 95 -20 26 -22 26 -155 26 -130 0 -136 -1 -159 -25z"/>
<path d="M1496 1789 c-31 -25 -34 -66 -7 -100 l19 -24 499 0 c274 -1 510 3
525 8 52 17 58 100 9 126 -13 7 -186 11 -519 11 -490 0 -500 0 -526 -21z"/>
<path d="M3889 1776 c-125 -45 -186 -185 -132 -306 21 -47 77 -104 122 -122
33 -14 373 -18 423 -5 48 12 113 68 139 119 62 121 -9 280 -142 318 -51 15
-366 12 -410 -4z m367 -135 c26 -2 56 -38 60 -71 4 -28 -1 -41 -21 -62 l-26
-28 -168 0 c-154 0 -169 2 -189 20 -47 44 -34 116 25 135 24 8 258 13 319 6z"/>
</g>
</svg>
